<?xml version="1.0"?>
<svg xmlns="http://www.w3.org/2000/svg" height="512px" viewBox="0 0 512.00853 512" width="512px"><path d="m486.410156 351.082031v-18.277343c0-14.113282-11.488281-25.601563-25.601562-25.601563h-42.667969c-11.144531 0-12.527344-11.441406-12.578125-16.722656 2.5625-11.101563 4.046875-22.605469 4.046875-34.476563 0-9.410156 7.652344-17.066406 17.066406-17.066406h34.132813c14.113281 0 25.601562-11.484375 25.601562-25.601562v-35.34375c14.675782-3.8125 25.597656-17.058594 25.597656-32.921876 0-18.824218-15.308593-34.132812-34.132812-34.132812s-34.132812 15.308594-34.132812 34.132812c0 15.863282 10.921874 29.109376 25.601562 32.921876v35.34375c0 4.710937-3.824219 8.535156-8.535156 8.535156h-34.132813c-7.355469 0-14.132812 2.390625-19.710937 6.367187-8.195313-44.605469-35.6875-82.441406-73.507813-104.652343 1.960938-7.265626 8.542969-12.648438 16.410157-12.648438h25.597656c14.117187 0 25.601562-11.484375 25.601562-25.601562v-18.277344c14.675782-3.8125 25.601563-17.058594 25.601563-32.921875 0-18.824219-15.308594-34.13281275-34.132813-34.13281275-18.828125 0-34.136718 15.30859375-34.136718 34.13281275 0 15.863281 10.925781 29.109375 25.601562 32.921875v18.277344c0 4.710937-3.824219 8.535156-8.535156 8.535156h-25.597656c-14.457032 0-26.769532 9.0625-31.734376 21.785156-16.546874-7.355469-34.621093-11.765625-53.597656-12.816406v-43.101563c0-18.824219-15.3125-34.132812-34.136718-34.132812h-35.34375c-3.8125-14.6875-17.066407-25.60156275-32.921876-25.60156275-18.824218 0-34.132812 15.30859375-34.132812 34.13281275s15.308594 34.132812 34.132812 34.132812c15.855469 0 29.109376-10.914062 32.921876-25.597656h35.34375c9.414062 0 17.066406 7.652344 17.066406 17.066406v43.101563c-41.878906 2.320312-79.273438 21.417968-105.625 50.765625h-39.441406c-30.503907 0-55.695313-23.007813-59.253907-52.558594 14.429688-3.976563 25.121094-17.082031 25.121094-32.777344 0-18.824219-15.308594-34.132812-34.132813-34.132812-18.824218 0-34.132812 15.308593-34.132812 34.132812 0 16 11.101562 29.355469 25.976562 33.042969 3.753907 38.867188 36.582032 69.359375 76.421876 69.359375h25.976562c-16.382812 24.421875-25.976562 53.777344-25.976562 85.332031 0 31.554688 9.59375 60.910156 25.976562 85.332032h-61.320312c-3.8125-14.675782-17.066407-25.597657-32.921876-25.597657-18.824218 0-34.132812 15.308594-34.132812 34.132813 0 18.824218 15.308594 34.132812 34.132812 34.132812 15.855469 0 29.109376-10.921875 32.921876-25.601562h74.785156c26.179687 29.160156 63.257812 48.207031 104.816406 50.722656-3.789062 19.679688-21.085938 34.613281-41.855469 34.613281h-60.945312c-3.816407-14.679687-17.066407-25.601562-32.921875-25.601562-18.824219 0-34.132813 15.308593-34.132813 34.132812s15.308594 34.132813 34.132813 34.132813c15.855468 0 29.105468-10.921875 32.921875-25.597656h60.945312c30.171875 0 55.125-22.511719 59.109375-51.601563 19.207032-.988281 37.496094-5.410156 54.222656-12.84375 4.964844 12.714844 17.277344 21.777344 31.734376 21.777344 4.710937 0 8.53125 3.824219 8.53125 8.535156v18.277344c-14.675782 3.816406-25.597657 17.058593-25.597657 32.921875 0 18.824218 15.308594 34.132812 34.132813 34.132812 18.824218 0 34.132812-15.308594 34.132812-34.132812 0-15.863282-10.921875-29.105469-25.601562-32.921875v-18.277344c0-14.113281-11.484375-25.601563-25.597656-25.601563-7.867188 0-14.449219-5.382812-16.410157-12.644531 28.425781-16.691406 51.125-42.140625 64.078125-72.746093 5.144532 5.425781 12.183594 8.589843 20.597656 8.589843h42.667969c4.710938 0 8.53125 3.824219 8.53125 8.535157v18.277343c-14.675781 3.816407-25.597656 17.058594-25.597656 32.921875 0 18.824219 15.308594 34.132813 34.132813 34.132813 18.824218 0 34.132812-15.308594 34.132812-34.132813.007812-15.863281-10.914062-29.105468-25.589844-32.921875zm-332.800781-95.078125c0 4.71875-3.824219 8.535156-8.535156 8.535156-4.710938 0-8.53125-3.816406-8.53125-8.535156 0-65.878906 53.589843-119.464844 119.464843-119.464844 4.710938 0 8.535157 3.8125 8.535157 8.53125s-3.824219 8.535157-8.535157 8.535157c-56.464843 0-102.398437 45.933593-102.398437 102.398437zm85.332031 85.332032c-4.710937 0-8.53125-3.8125-8.53125-8.53125v-17.066407h-25.601562c-4.710938 0-8.535156-3.816406-8.535156-8.535156s3.824218-8.53125 8.535156-8.53125h8.535156v-85.335937h-8.535156c-4.710938 0-8.535156-3.8125-8.535156-8.53125s3.824218-8.535157 8.535156-8.535157h25.601562v-17.066406c0-4.71875 3.820313-8.53125 8.53125-8.53125 4.710938 0 8.535156 3.8125 8.535156 8.53125v17.066406h17.066407v-17.066406c0-4.71875 3.820312-8.53125 8.53125-8.53125 4.710937 0 8.535156 3.8125 8.535156 8.53125v18.28125c14.675781 3.8125 25.597656 17.054687 25.597656 32.917969 0 10.25-4.625 19.339844-11.792969 25.601562 7.167969 6.265625 11.792969 15.351563 11.792969 25.601563 0 15.863281-10.921875 29.105469-25.597656 32.921875v18.277344c0 4.71875-3.824219 8.53125-8.535156 8.53125-4.710938 0-8.53125-3.8125-8.53125-8.53125v-17.066407h-17.066407v17.066407c0 4.71875-3.824218 8.53125-8.535156 8.53125zm17.066406 34.136718c-4.710937 0-8.53125-3.816406-8.53125-8.535156s3.820313-8.535156 8.53125-8.535156c56.464844 0 102.402344-45.933594 102.402344-102.398438 0-4.71875 3.820313-8.53125 8.53125-8.53125 4.710938 0 8.535156 3.8125 8.535156 8.53125 0 65.878906-53.589843 119.46875-119.46875 119.46875zm0 0" fill="#444444"/><path d="m290.140625 230.402344c0-9.410156-7.652344-17.066406-17.066406-17.066406h-42.664063v34.136718h42.664063c9.414062 0 17.066406-7.65625 17.066406-17.070312zm0 0" fill="#444444"/><path d="m290.140625 281.605469c0-9.414063-7.652344-17.066407-17.066406-17.066407h-42.664063v34.132813h42.664063c9.414062 0 17.066406-7.65625 17.066406-17.066406zm0 0" fill="#444444"/></svg>
