<?xml version="1.0"?>
<svg xmlns="http://www.w3.org/2000/svg" height="512px" viewBox="-8 0 512 512.00917" width="512px"><path d="m462.769531 287.921875-210.328125 123.429687c-1.429687.84375-3.035156 1.265626-4.636718 1.265626-1.605469 0-3.210938-.421876-4.640626-1.265626l-210.324218-123.429687-32.808594 19.207031 37.246094 21.859375 210.527344 123.550781 210.515624-123.550781 37.246094-21.859375zm0 0" fill="#444444"/><path d="m495.566406 247.402344-89.910156-52.644532c-.992188 3.253907-2.21875 6.40625-3.414062 9.570313-.449219 1.203125-.84375 2.429687-1.328126 3.613281-1.257812 3.136719-2.667968 6.1875-4.117187 9.234375-.566406 1.179688-1.117187 2.375-1.703125 3.539063-1.605469 3.171875-3.300781 6.28125-5.109375 9.339844-.410156.707031-.851563 1.40625-1.273437 2.101562-12.636719 20.667969-29.679688 38.492188-49.859376 51.90625-21.402343 14.230469-46.15625 23.378906-71.683593 26.421875-28.378907 3.386719-57.460938-.839844-83.75-12.019531-22.65625-9.644532-43.039063-24.40625-59.3125-42.882813-6.417969-7.28125-12.203125-15.128906-17.246094-23.425781-.429687-.695312-.863281-1.394531-1.273437-2.101562-1.796876-3.050782-3.503907-6.160157-5.109376-9.339844-.585937-1.164063-1.144531-2.359375-1.714843-3.539063-1.4375-3.046875-2.851563-6.097656-4.117188-9.234375-.476562-1.183594-.871093-2.410156-1.328125-3.613281-1.183594-3.171875-2.410156-6.316406-3.402344-9.570313l-89.91015575 52.644532 247.77343775 145.410156zm0 0" fill="#444444"/><path d="m104.953125 179.589844c3.695313 16.101562 10.039063 31.128906 18.527344 44.636718.128906.199219.25.410157.378906.613282 2.152344 3.390625 4.445313 6.703125 6.902344 9.949218 16.265625 20.335938 36.125 36.691407 60.222656 46.953126 25.488281 10.847656 54.066406 14.019531 81.355469 9.414062 26.679687-4.5 51.777344-16.640625 72.101562-34.472656 7.511719-6.59375 14.359375-13.9375 20.4375-21.949219 2.421875-3.191406 4.707032-6.492187 6.859375-9.886719.136719-.210937.257813-.429687.386719-.640625 8.488281-13.507812 14.835938-28.523437 18.53125-44.625 2.4375-10.589843 3.847656-21.566406 3.847656-32.878906 0-80.890625-65.8125-146.703125-146.699218-146.703125-80.898438 0-146.703126 65.8125-146.703126 146.703125 0 11.324219 1.410157 22.296875 3.851563 32.886719zm252.875-32.878906c0-5.070313 4.109375-9.167969 9.171875-9.167969 5.058594 0 9.167969 4.097656 9.167969 9.167969 0 70.785156-57.582031 128.363281-128.363281 128.363281-5.0625 0-9.171876-4.097657-9.171876-9.167969s4.109376-9.167969 9.171876-9.167969c60.660156 0 110.023437-49.355469 110.023437-110.027343zm-91.6875-91.6875c5.0625 0 9.167969 4.097656 9.167969 9.167968v19.640625c15.773437 4.097657 27.507812 18.328125 27.507812 35.371094 0 11.011719-4.96875 20.777344-12.671875 27.507813 7.703125 6.730468 12.671875 16.496093 12.671875 27.507812 0 17.042969-11.734375 31.273438-27.507812 35.371094v19.640625c0 5.070312-4.105469 9.167969-9.167969 9.167969s-9.167969-4.097657-9.167969-9.167969v-18.335938h-18.339844v18.335938c0 5.070312-4.105468 9.167969-9.167968 9.167969s-9.167969-4.097657-9.167969-9.167969v-18.335938h-27.507813c-5.0625 0-9.167968-4.097656-9.167968-9.167969 0-5.070312 4.105468-9.171874 9.167968-9.171874h9.167969v-91.6875h-9.167969c-5.0625 0-9.167968-4.097657-9.167968-9.167969 0-5.070313 4.105468-9.171875 9.167968-9.171875h27.507813v-18.335938c0-5.070312 4.105469-9.167968 9.167969-9.167968s9.167968 4.097656 9.167968 9.167968v18.335938h18.339844v-18.335938c0-5.070312 4.097656-9.167968 9.167969-9.167968zm-18.335937-36.675782c5.058593 0 9.167968 4.097656 9.167968 9.167969s-4.109375 9.167969-9.167968 9.167969c-60.671876 0-110.027344 49.355468-110.027344 110.027344 0 5.070312-4.109375 9.167968-9.167969 9.167968-5.0625 0-9.171875-4.097656-9.171875-9.167968 0-70.785157 57.582031-128.363282 128.367188-128.363282zm0 0" fill="#444444"/><path d="m220.296875 192.554688h45.84375c10.113281 0 18.339844-8.222657 18.339844-18.335938s-8.226563-18.339844-18.339844-18.339844h-45.84375zm0 0" fill="#444444"/><path d="m220.296875 100.867188v36.675781h45.84375c10.113281 0 18.339844-8.226563 18.339844-18.339844s-8.226563-18.335937-18.339844-18.335937zm0 0" fill="#444444"/><path d="m495.566406 366.601562-32.597656-19.082031-210.527344 123.550781c-1.429687.84375-3.035156 1.265626-4.636718 1.265626-1.605469 0-3.210938-.421876-4.640626-1.265626l-210.527343-123.550781-32.5937502 19.082031 247.7617192 145.40625zm0 0" fill="#444444"/></svg>
