<?xml version="1.0"?>
<svg xmlns="http://www.w3.org/2000/svg" height="38px" viewBox="0 0 512 512" width="38px"><path d="m226.824219 114.527344h-3.945313l-9.167968 9.167968v27.554688h84.574218v-27.554688l-9.164062-9.167968h-3.945313v-6.285156h52.570313v-6.828126c.894531.476563 1.78125.957032 2.664062 1.441407l7.253906-13.128907c-3.238281-1.789062-6.5625-3.496093-9.917968-5.101562v-84.625h-163.492188v108.242188h52.570313zm56.464843 21.722656h-54.574218v-6.339844l.378906-.378906h53.8125l.378906.378906v6.339844zm-13.113281-21.722656h-28.351562v-6.285156h28.351562zm-80.921875-99.527344h133.492188v57.609375h-133.492188zm0 78.242188v-5.632813h133.492188v5.632813zm0 0" fill="#444444"/><path d="m174.253906 410.585938c-.777344-.414063-1.554687-.828126-2.320312-1.25l-7.222656 13.144531c3.117187 1.714843 6.3125 3.355469 9.542968 4.894531v41.617188h52.570313v6.285156h-3.945313l-9.167968 9.167968v27.554688h84.574218v-27.554688l-9.164062-9.167968h-3.945313v-6.285156h52.570313v-108.242188h-163.492188zm109.035156 86.414062h-54.574218v-6.339844l.378906-.378906h53.8125l.378906.378906v6.339844zm-13.113281-21.722656h-28.351562v-6.285156h28.351562zm52.570313-21.285156h-133.492188v-5.632813h133.492188zm-133.492188-78.242188h133.492188v57.609375h-133.492188zm0 0" fill="#444444"/><path d="m348.503906 180.375v108.242188h52.507813v6.285156h-3.945313l-9.164062 9.167968v27.554688h25.773437c-.449219.9375-.910156 1.871094-1.375 2.800781l13.402344 6.734375c1.570313-3.125 3.066406-6.316406 4.464844-9.535156h42.308593v-27.554688l-9.167968-9.167968h-3.945313v-6.285156h52.636719v-108.242188zm108.972656 136.25h-54.574218v-6.34375l.378906-.378906h53.816406l.378906.378906zm-13.113281-21.722656h-28.351562v-6.285156h28.351562zm52.636719-21.285156h-133.496094v-5.632813h133.496094zm-133.496094-20.632813v-57.609375h133.496094v57.609375zm0 0" fill="#444444"/><path d="m48.5625 294.902344-9.164062 9.167968v27.554688h84.574218v-27.554688l-9.167968-9.167968h-3.945313v-6.285156h52.636719v-108.242188h-65.171875c.449219-.9375.90625-1.871094 1.375-2.800781l-13.402344-6.734375c-1.570313 3.121094-3.066406 6.3125-4.464844 9.535156h-81.832031v108.242188h52.507812v6.285156zm60.410156 21.722656h-54.574218v-6.339844l.378906-.378906h53.816406l.378906.378906zm-93.972656-121.25h133.496094v57.609375h-133.496094zm0 78.242188v-5.632813h133.496094v5.632813zm52.507812 15h28.351563v6.285156h-28.351563zm0 0" fill="#444444"/><path d="m281.839844 232.425781-25.839844 14.914063-25.839844-14.914063-7.5 12.988281 25.839844 14.917969v29.839844h15v-29.839844l25.839844-14.917969zm0 0" fill="#444444"/><path d="m142.828125 408.421875c4.15625 3.09375 8.496094 6.054687 12.898437 8.796875l7.933594-12.730469c-4.054687-2.527343-8.050781-5.25-11.878906-8.101562zm0 0" fill="#444444"/><path d="m102.902344 340.496094-13.125 7.257812c11.484375 20.769532 26.582031 39.015625 44.871094 54.234375l9.59375-11.53125c-16.851563-14.023437-30.757813-30.832031-41.339844-49.960937zm0 0" fill="#444444"/><path d="m400.097656 355.035156 12.355469 8.511719c2.941406-4.273437 5.738281-8.71875 8.316406-13.210937l-13.007812-7.464844c-2.375 4.140625-4.953125 8.234375-7.664063 12.164062zm0 0" fill="#444444"/><path d="m346.367188 405.699219 7.765624 12.832031c20.183594-12.210938 37.742188-27.882812 52.183594-46.578125l-11.871094-9.171875c-13.308593 17.230469-29.480468 31.667969-48.078124 42.917969zm0 0" fill="#444444"/><path d="m369.515625 103.832031c-4.152344-3.101562-8.484375-6.070312-12.878906-8.824219l-7.960938 12.714844c4.046875 2.53125 8.035157 5.265625 11.859375 8.125zm0 0" fill="#444444"/><path d="m409.097656 171.503906 13.125-7.261718c-11.414062-20.636719-26.402344-38.792969-44.542968-53.957032l-9.617188 11.511719c16.710938 13.972656 30.519531 30.695313 41.035156 49.707031zm0 0" fill="#444444"/><path d="m165.632812 106.300781-7.765624-12.832031c-20.183594 12.210938-37.742188 27.882812-52.183594 46.578125l11.871094 9.171875c13.308593-17.230469 29.484374-31.667969 48.078124-42.917969zm0 0" fill="#444444"/><path d="m111.902344 156.964844-12.355469-8.511719c-2.941406 4.273437-5.742187 8.71875-8.320313 13.210937l13.011719 7.464844c2.375-4.136718 4.953125-8.230468 7.664063-12.164062zm0 0" fill="#444444"/><path d="m320.441406 233.648438c-2.574218 0-5.046875.4375-7.347656 1.242187v-11.855469l-40.851562-23.585937c3.773437-4.003907 6.09375-9.394531 6.09375-15.320313 0-12.324218-10.027344-22.351562-22.351563-22.351562s-22.351563 10.027344-22.351563 22.351562c0 5.929688 2.320313 11.328125 6.105469 15.335938l-40.832031 23.570312v11.855469c-2.300781-.804687-4.773438-1.242187-7.347656-1.242187-12.324219 0-22.351563 10.027343-22.351563 22.351562s10.023438 22.351562 22.351563 22.351562c2.574218 0 5.046875-.441406 7.347656-1.242187v11.851563l40.980469 23.660156c-3.871094 4.023437-6.253907 9.484375-6.253907 15.492187 0 12.324219 10.027344 22.351563 22.351563 22.351563s22.351563-10.027344 22.351563-22.351563c0-6.003906-2.382813-11.460937-6.246094-15.480469l41.003906-23.671874v-11.855469c2.304688.804687 4.777344 1.242187 7.351562 1.242187 12.324219 0 22.351563-10.023437 22.351563-22.351562 0-12.324219-10.03125-22.347656-22.355469-22.347656zm-64.457031-56.867188c4.050781 0 7.351563 3.296875 7.351563 7.347656 0 4.054688-3.300782 7.351563-7.351563 7.351563-4.054687 0-7.351563-3.296875-7.351563-7.351563 0-4.050781 3.296876-7.347656 7.351563-7.347656zm-64.425781 86.570312c-4.054688 0-7.351563-3.296874-7.351563-7.351562s3.296875-7.351562 7.351563-7.351562c4.050781 0 7.347656 3.296874 7.347656 7.351562s-3.296875 7.351562-7.347656 7.351562zm64.425781 72.113282c-4.054687 0-7.351563-3.296875-7.351563-7.351563 0-4.050781 3.296876-7.347656 7.351563-7.347656 4.050781 0 7.351563 3.296875 7.351563 7.347656-.003907 4.054688-3.300782 7.351563-7.351563 7.351563zm42.109375-55.164063-42.09375 24.304688-42.09375-24.304688v-48.601562l42.09375-24.304688 42.09375 24.304688zm22.347656-16.949219c-4.050781 0-7.347656-3.296874-7.347656-7.351562s3.296875-7.351562 7.347656-7.351562c4.054688 0 7.351563 3.296874 7.351563 7.351562s-3.296875 7.351562-7.351563 7.351562zm0 0" fill="#444444"/><path d="m130.996094 220.375h-48.496094v-15h48.496094zm-58.496094 0h-15v-15h15zm-25 0h-15v-15h15zm0 0" fill="#444444"/><path d="m479.5 220.375h-48.496094v-15h48.496094zm-58.496094 0h-15v-15h15zm-25 0h-15v-15h15zm0 0" fill="#444444"/><path d="m305.246094 40h-48.492188v-15h48.492188zm-58.492188 0h-15v-15h15zm-25 0h-15v-15h15zm0 0" fill="#444444"/><path d="m305.246094 400.75h-48.492188v-15h48.492188zm-58.492188 0h-15v-15h15zm-25 0h-15v-15h15zm0 0" fill="#444444"/></svg>
