<?xml version="1.0" encoding="iso-8859-1"?>
<!-- Generator: Adobe Illustrator 19.0.0, SVG Export Plug-In . SVG Version: 6.00 Build 0)  -->
<svg xmlns="http://www.w3.org/2000/svg" xmlns:xlink="http://www.w3.org/1999/xlink" version="1.1" id="Capa_1" x="0px" y="0px" viewBox="0 0 512.03 512.03" style="enable-background:new 0 0 512.03 512.03;" xml:space="preserve" width="512px" height="512px">
<g>
	<g>
		<path d="M70.466,350.122l-27.41-27.419c-0.841-0.85-1.856-1.518-2.981-1.984c-2.231-0.923-4.754-0.923-6.985,0    c-1.125,0.466-2.13,1.134-2.981,1.984L2.681,350.122c-3.575,3.575-3.575,9.353,0,12.928c1.774,1.783,4.123,2.679,6.464,2.679    s4.681-0.896,6.464-2.679l11.822-11.822v60.215c0,5.056,4.096,9.143,9.143,9.143c5.047,0,9.143-4.087,9.143-9.143v-60.215    l11.822,11.822c1.774,1.783,4.123,2.679,6.464,2.679s4.681-0.896,6.464-2.679C74.041,359.475,74.041,353.697,70.466,350.122z" fill="#444444"/>
	</g>
</g>
<g>
	<g>
		<path d="M509.342,148.989c-3.566-3.575-9.362-3.575-12.928,0l-11.822,11.822v-60.224c0-5.056-4.096-9.143-9.143-9.143    c-5.047,0-9.143,4.087-9.143,9.143v60.215l-11.822-11.822c-3.566-3.575-9.362-3.575-12.928,0c-3.575,3.575-3.575,9.353,0,12.928    c8.786,8.786,17.554,17.609,26.368,26.368c0.357,0.357,0.722,0.695,1.097,1.015c2.085,1.783,4.425,2.935,7.378,2.651    c4.553-0.439,7.433-4.517,10.45-7.534c3.09-3.09,6.181-6.181,9.271-9.271c4.407-4.407,8.814-8.814,13.221-13.221    C512.917,158.342,512.917,152.563,509.342,148.989z" fill="#444444"/>
	</g>
</g>
<g>
	<g>
		<path d="M0.021,128.015v35.648c17.883-3.639,32.009-17.765,35.648-35.648H0.021z" fill="#444444"/>
	</g>
</g>
<g>
	<g>
		<path d="M0.021,238.653v35.648h35.648C32.03,256.417,17.904,242.291,0.021,238.653z" fill="#444444"/>
	</g>
</g>
<g>
	<g>
		<circle cx="109.726" cy="201.158" r="27.429" fill="#444444"/>
	</g>
</g>
<g>
	<g>
		<path d="M165.323,128.015h-64.731H54.146c-4.023,27.968-26.158,50.094-54.126,54.126v38.034    c27.968,4.032,50.094,26.158,54.126,54.126h46.446h64.731c4.023-27.968,26.158-50.094,54.126-54.126v-38.034    C191.481,178.109,169.355,155.983,165.323,128.015z M109.735,246.872c-25.207,0-45.714-20.507-45.714-45.714    s20.507-45.714,45.714-45.714s45.714,20.507,45.714,45.714S134.942,246.872,109.735,246.872z" fill="#444444"/>
	</g>
</g>
<g>
	<g>
		<path d="M109.744,457.158v34.139h-0.009c0,11.419,9.298,20.718,20.718,20.718h251.145c11.419,0,20.718-9.298,20.718-20.718    v-34.139H109.744z M182.878,493.729h-36.571c-5.047,0-9.143-4.087-9.143-9.143c0-5.056,4.096-9.143,9.143-9.143h36.571    c5.047,0,9.143,4.087,9.143,9.143C192.021,489.642,187.925,493.729,182.878,493.729z M283.449,493.729h-54.857    c-5.047,0-9.143-4.087-9.143-9.143c0-5.056,4.096-9.143,9.143-9.143h54.857c5.047,0,9.143,4.087,9.143,9.143    C292.592,489.642,288.496,493.729,283.449,493.729z M365.735,493.729h-36.571c-5.047,0-9.143-4.087-9.143-9.143    c0-5.056,4.096-9.143,9.143-9.143h36.571c5.047,0,9.143,4.087,9.143,9.143C374.878,489.642,370.782,493.729,365.735,493.729z" fill="#444444"/>
	</g>
</g>
<g>
	<g>
		<path d="M292.592,292.586v79.314c0,1.673,0.338,3.264,0.951,4.709c1.838,4.352,6.153,7.406,11.163,7.406h106.743h88.457    c6.674,0,12.114-5.44,12.114-12.114v-79.314H292.592z M356.592,356.586h-36.571c-5.047,0-9.143-4.087-9.143-9.143    s4.096-9.143,9.143-9.143h36.571c5.047,0,9.143,4.087,9.143,9.143S361.639,356.586,356.592,356.586z M411.449,356.586h-18.286    c-5.047,0-9.143-4.087-9.143-9.143s4.096-9.143,9.143-9.143h18.286c5.047,0,9.143,4.087,9.143,9.143    S416.496,356.586,411.449,356.586z M484.592,356.586h-36.571c-5.047,0-9.143-4.087-9.143-9.143s4.096-9.143,9.143-9.143h36.571    c5.047,0,9.143,4.087,9.143,9.143S489.639,356.586,484.592,356.586z" fill="#444444"/>
	</g>
</g>
<g>
	<g>
		<path d="M381.589,0.015H130.443c-11.419,0-20.718,9.298-20.718,20.718v34.139h292.571V20.733h0.009    C402.306,9.313,393.008,0.015,381.589,0.015z M301.735,36.586h-91.429c-5.047,0-9.143-4.087-9.143-9.143    c0-5.056,4.096-9.143,9.143-9.143h91.429c5.047,0,9.143,4.087,9.143,9.143C310.878,32.499,306.782,36.586,301.735,36.586z" fill="#444444"/>
	</g>
</g>
<g>
	<g>
		<path d="M183.801,274.301h35.648v-35.648C201.566,242.291,187.44,256.417,183.801,274.301z" fill="#444444"/>
	</g>
</g>
<g>
	<g>
		<path d="M183.801,128.015c3.639,17.883,17.765,32.009,35.648,35.648v-35.648H183.801z" fill="#444444"/>
	</g>
</g>
<g>
	<g>
		<path d="M274.306,249.843c0-4.187,0.85-8.192,2.395-11.822c4.617-10.907,15.433-18.578,28.005-18.578h97.6V73.158H109.735v36.571    h64h54.857c5.047,0,9.143,4.087,9.143,9.143v54.857v54.857v54.857c0,5.056-4.096,9.143-9.143,9.143h-54.857h-64v146.286h292.571    v-36.571h-97.6c-12.581,0-23.387-7.671-28.005-18.578c-1.536-3.639-2.395-7.634-2.395-11.822v-88.457V249.843z" fill="#444444"/>
	</g>
</g>
<g>
	<g>
		<path d="M499.906,237.729h-88.457H304.715c-5.01,0-9.326,3.063-11.163,7.406c-0.613,1.454-0.951,3.045-0.951,4.709v24.457H512.03    v-24.457C512.021,243.169,506.581,237.729,499.906,237.729z" fill="#444444"/>
	</g>
</g>
<g>
</g>
<g>
</g>
<g>
</g>
<g>
</g>
<g>
</g>
<g>
</g>
<g>
</g>
<g>
</g>
<g>
</g>
<g>
</g>
<g>
</g>
<g>
</g>
<g>
</g>
<g>
</g>
<g>
</g>
</svg>
